<?xml version="1.0" encoding="UTF-8" standalone="no"?>
<svg
   xmlns:dc="http://purl.org/dc/elements/1.1/"
   xmlns:cc="http://creativecommons.org/ns#"
   xmlns:rdf="http://www.w3.org/1999/02/22-rdf-syntax-ns#"
   xmlns:svg="http://www.w3.org/2000/svg"
   xmlns="http://www.w3.org/2000/svg"
   xmlns:sodipodi="http://sodipodi.sourceforge.net/DTD/sodipodi-0.dtd"
   xmlns:inkscape="http://www.inkscape.org/namespaces/inkscape"
   viewBox="0 0 256 255.99999"
   xml:space="preserve"
   version="1.1"
   id="svg36"
   sodipodi:docname="gitgitgadget.svg"
   inkscape:version="0.92.3 (2405546, 2018-03-11)"
   width="256"
   height="256"
   inkscape:export-xdpi="96"
   inkscape:export-ydpi="96"
   inkscape:export-filename="D:\gitgitgadget\images\gitgitgadget.png"><metadata
     id="metadata40"><rdf:RDF><cc:Work
         rdf:about=""><dc:format>image/svg+xml</dc:format><dc:type
           rdf:resource="http://purl.org/dc/dcmitype/StillImage" /><dc:title /></cc:Work></rdf:RDF></metadata><sodipodi:namedview
     pagecolor="#ffffff"
     bordercolor="#666666"
     borderopacity="1"
     objecttolerance="10"
     gridtolerance="10"
     guidetolerance="10"
     inkscape:pageopacity="0"
     inkscape:pageshadow="2"
     inkscape:window-width="2880"
     inkscape:window-height="1413"
     id="namedview38"
     showgrid="false"
     inkscape:zoom="3.456542"
     inkscape:cx="-14.917402"
     inkscape:cy="141.44483"
     inkscape:window-x="-13"
     inkscape:window-y="-13"
     inkscape:window-maximized="1"
     inkscape:current-layer="svg36"
     fit-margin-top="0"
     fit-margin-left="0"
     fit-margin-right="0"
     fit-margin-bottom="0"
     showguides="true"
     inkscape:guide-bbox="true"><sodipodi:guide
       position="-115.58245,-58.805106"
       orientation="1,0"
       id="guide4668"
       inkscape:locked="false" /></sodipodi:namedview><defs
     id="defs8"><clipPath
       id="clipPath18"><path
         d="M 0,0 H 2183.73 V 912 H 0 Z"
         id="path2"
         inkscape:connector-curvature="0" /></clipPath><clipPath
       id="clipPath3018"><path
         d="M 230.8919,51.9769 181.1496,2.2382 c -2.8623,-2.8648 -7.5083,-2.8648 -10.3745,0 l -10.3286,10.3295 13.1021,13.1026 c 3.0459,-1.0284 6.5371,-0.3389 8.9639,2.0884 2.4394,2.4424 3.124,5.9634 2.0698,9.0195 l 12.628,12.6275 c 3.0551,-1.0528 6.58,-0.3726 9.0195,2.0713 3.4106,3.4096 3.4106,8.9345 0,12.3453 -3.4106,3.4108 -8.936,3.4116 -12.3486,0 -2.5645,-2.5665 -3.1988,-6.3345 -1.8999,-9.4942 l -11.7769,-11.7773 -0.001,30.9911 c 0.8315,0.4116 1.6163,0.961 2.3091,1.6509 3.4096,3.4093 3.4096,8.9331 0,12.3478 -3.4096,3.4147 -8.938,3.4091 -12.3453,0 -3.4073,-3.4091 -3.4101,-8.9385 0,-12.3478 0.8428,-0.8413 1.8179,-1.478 2.8584,-1.9047 V 42.0094 c -1.0405,-0.4254 -2.0141,-1.0576 -2.8584,-1.9049 -2.583,-2.581 -3.2051,-6.372 -1.8804,-9.5439 l -12.9155,-12.918 -34.1065,34.1045 c -2.8657,2.8671 -2.8657,7.5131 0,10.3784 l 49.7417,49.7388 c 2.8638,2.8647 7.5083,2.8647 10.376,0 L 230.8918,62.356 c 2.8647,-2.8663 2.8647,-7.5136 0,-10.3789"
         id="path5"
         inkscape:connector-curvature="0" /></clipPath></defs><g
     id="g872"
     style="stroke-width:20;stroke-miterlimit:4;stroke-dasharray:none;stroke:#ffffff;stroke-opacity:1"><path
       style="fill:#000000;fill-opacity:1;stroke:#ffffff;stroke-width:20;stroke-linecap:butt;stroke-linejoin:round;stroke-miterlimit:4;stroke-dasharray:none;stroke-opacity:1"
       d="m 166.9013,84.175713 c 34.94798,9.970472 44.78622,-18.908058 48.17145,-17.030693 4.34877,2.41172 -1.40096,20.726399 -1.40096,20.726399 0,0 3.65723,-5.12212 4.22534,-3.130318 4.30308,15.086884 -2.40897,18.834569 -6.4716,26.192669 0,0 2.36888,-0.22759 2.84204,0.61155 3.48219,6.17559 -15.67373,18.79983 -29.94139,34.24945 z"
       id="path834"
       inkscape:connector-curvature="0"
       sodipodi:nodetypes="cscscscc" /><path
       sodipodi:nodetypes="cscscscc"
       inkscape:connector-curvature="0"
       id="path836"
       d="M 97.873989,84.175713 C 52.983936,93.710651 52.716897,65.504662 49.70254,67.14502 c -4.368132,2.377058 1.400963,20.726399 1.400963,20.726399 0,0 -3.657232,-5.12212 -4.22534,-3.130318 -4.30308,15.086884 2.408971,18.834569 6.471593,26.192669 0,0 -2.368874,-0.22759 -2.842038,0.61155 -3.482186,6.17559 15.673727,18.79983 29.94139,34.24945 z"
       style="fill:#000000;fill-opacity:1;stroke:#ffffff;stroke-width:20;stroke-linecap:butt;stroke-linejoin:round;stroke-miterlimit:4;stroke-dasharray:none;stroke-opacity:1" /><g
       style="stroke:#ffffff;stroke-width:24.48136805;stroke-miterlimit:4;stroke-dasharray:none;stroke-opacity:1"
       id="g860"
       transform="matrix(0.8203125,0,0,0.81359692,173.60509,63.991126)"><path
         sodipodi:nodetypes="ccccccccc"
         inkscape:connector-curvature="0"
         id="path852"
         d="m -125,26 c 47.621765,-7.115684 95.940701,-7.25966 145,0 L 0,6 -5,-14 -10,-49 c -43.119878,-35.839586 -42.556997,-36.564381 -85,0 l -5,35 -5,20 z"
         style="fill:#a5a5a5;fill-opacity:1;stroke:#ffffff;stroke-width:24.48136805;stroke-linecap:butt;stroke-linejoin:round;stroke-miterlimit:4;stroke-dasharray:none;stroke-opacity:1" /><path
         sodipodi:nodetypes="cc"
         inkscape:connector-curvature="0"
         id="path854"
         d="m -62.57747,-64.373232 c 1.74042,17.148571 -5.08465,26.390532 -12.52014,35.069033"
         style="fill:none;stroke:#ffffff;stroke-width:24.48136805;stroke-linecap:butt;stroke-linejoin:miter;stroke-miterlimit:4;stroke-dasharray:none;stroke-opacity:1" /><path
         style="fill:none;stroke:#ffffff;stroke-width:24.48136805;stroke-linecap:butt;stroke-linejoin:miter;stroke-miterlimit:4;stroke-dasharray:none;stroke-opacity:1"
         d="m -40.23145,-64.373232 c -1.74042,17.148571 5.08465,26.390532 12.52014,35.069033"
         id="path856"
         inkscape:connector-curvature="0"
         sodipodi:nodetypes="cc" /><path
         sodipodi:nodetypes="ccccc"
         inkscape:connector-curvature="0"
         id="path858"
         d="m -100,-14 c 31.33739,-15.728051 61.138541,-15.607054 95,0 L 0,6 C -35.994483,-5.7319681 -70.1828,-3.807408 -105,6 Z"
         style="fill:#ffffff;fill-opacity:1;stroke:#ffffff;stroke-width:24.48136805;stroke-linecap:butt;stroke-linejoin:miter;stroke-miterlimit:4;stroke-dasharray:none;stroke-opacity:1" /></g></g><g
     id="g4707"
     transform="matrix(0.8203125,0,0,0.81359692,28,47.719188)"
     style="stroke-width:6.12034201;stroke-miterlimit:4;stroke-dasharray:none"><path
       inkscape:connector-curvature="0"
       id="path3783"
       d=""
       style="fill:#000000;stroke-width:6.12034201;stroke-miterlimit:4;stroke-dasharray:none" /><path
       sodipodi:nodetypes="cscscscc"
       inkscape:connector-curvature="0"
       id="path4688"
       d="m 169.3273,44.809074 c 42.60325,12.254806 54.59653,-23.24008 58.72329,-20.932592 5.30136,2.964269 -1.70784,25.475021 -1.70784,25.475021 0,0 4.45834,-6.295648 5.15089,-3.847505 5.24566,18.543439 -2.93665,23.149751 -7.88918,32.193674 0,0 2.88777,-0.279737 3.46458,0.751656 4.24495,7.590484 -19.10702,23.107062 -36.49998,42.096342 z"
       style="fill:#000000;fill-opacity:1;stroke:#000000;stroke-width:6.12034201;stroke-linecap:butt;stroke-linejoin:round;stroke-miterlimit:4;stroke-dasharray:none;stroke-opacity:1" /><path
       style="fill:#000000;fill-opacity:1;stroke:#000000;stroke-width:6.12034201;stroke-linecap:butt;stroke-linejoin:round;stroke-miterlimit:4;stroke-dasharray:none;stroke-opacity:1"
       d="M 85.17972,44.809074 C 30.456608,56.528561 30.131075,21.860302 26.45643,23.876482 c -5.324961,2.921665 1.70784,25.475021 1.70784,25.475021 0,0 -4.45834,-6.295648 -5.15089,-3.847505 -5.24566,18.543439 2.93665,23.149751 7.88918,32.193674 0,0 -2.88777,-0.279737 -3.46458,0.751656 -4.24495,7.590484 19.10702,23.107062 36.49998,42.096342 z"
       id="path4690"
       inkscape:connector-curvature="0"
       sodipodi:nodetypes="cscscscc" /><g
       transform="matrix(0.69172921,0.69172921,-0.69172921,0.69172921,68.468382,49.185776)"
       id="g4637"
       style="stroke-width:6.25640103;stroke-miterlimit:4;stroke-dasharray:none"><rect
         id="rect3812"
         width="200"
         height="200"
         x="0"
         y="-86.062027"
         ry="25.588522"
         style="fill:#ef4f32;fill-opacity:1;stroke-width:6.25640103;stroke-miterlimit:4;stroke-dasharray:none" /><rect
         id="rect4619"
         width="120"
         height="20"
         x="0"
         y="-36.062027"
         ry="0.67205513"
         style="fill:#ffffff;fill-opacity:1;stroke-width:6.25640103;stroke-miterlimit:4;stroke-dasharray:none" /><rect
         style="fill:#ffffff;fill-opacity:1;stroke-width:6.25640103;stroke-miterlimit:4;stroke-dasharray:none"
         ry="0.67205513"
         y="50.458649"
         x="-141.27341"
         height="20"
         width="120"
         id="rect4623"
         transform="rotate(-135)" /><circle
         id="path4625"
         cx="60"
         cy="-26.062027"
         style="fill:#ffffff;fill-opacity:1;stroke-width:6.25640103;stroke-miterlimit:4;stroke-dasharray:none"
         r="20" /><circle
         r="20"
         style="fill:#ffffff;fill-opacity:1;stroke-width:6.25640103;stroke-miterlimit:4;stroke-dasharray:none"
         cy="-26.062027"
         cx="135"
         id="circle4627" /><circle
         id="circle4629"
         cx="135"
         cy="49.937973"
         style="fill:#ffffff;fill-opacity:1;stroke-width:6.25640103;stroke-miterlimit:4;stroke-dasharray:none"
         r="20" /></g><g
       transform="translate(177.49954,20)"
       id="g4686"
       style="stroke-width:6.12034201;stroke-miterlimit:4;stroke-dasharray:none"><path
         style="fill:#a5a5a5;fill-opacity:1;stroke:#000000;stroke-width:6.12034201;stroke-linecap:butt;stroke-linejoin:round;stroke-miterlimit:4;stroke-dasharray:none;stroke-opacity:1"
         d="m -125,26 c 47.621765,-7.115684 95.940701,-7.25966 145,0 L 0,6 -5,-14 -10,-49 c -43.119878,-35.839586 -42.556997,-36.564381 -85,0 l -5,35 -5,20 z"
         id="path4670"
         inkscape:connector-curvature="0"
         sodipodi:nodetypes="ccccccccc" /><path
         style="fill:none;stroke:#000000;stroke-width:6.12034201;stroke-linecap:butt;stroke-linejoin:miter;stroke-miterlimit:4;stroke-dasharray:none;stroke-opacity:1"
         d="m -62.57747,-64.373232 c 1.74042,17.148571 -5.08465,26.390532 -12.52014,35.069033"
         id="path4672"
         inkscape:connector-curvature="0"
         sodipodi:nodetypes="cc" /><path
         sodipodi:nodetypes="cc"
         inkscape:connector-curvature="0"
         id="path4674"
         d="m -40.23145,-64.373232 c -1.74042,17.148571 5.08465,26.390532 12.52014,35.069033"
         style="fill:none;stroke:#000000;stroke-width:6.12034201;stroke-linecap:butt;stroke-linejoin:miter;stroke-miterlimit:4;stroke-dasharray:none;stroke-opacity:1" /><path
         style="fill:#ffffff;fill-opacity:1;stroke:#000000;stroke-width:6.12034201;stroke-linecap:butt;stroke-linejoin:miter;stroke-miterlimit:4;stroke-dasharray:none;stroke-opacity:1"
         d="m -100,-14 c 31.33739,-15.728051 61.138541,-15.607054 95,0 L 0,6 C -35.994483,-5.7319681 -70.1828,-3.807408 -105,6 Z"
         id="path4680"
         inkscape:connector-curvature="0"
         sodipodi:nodetypes="ccccc" /></g></g><path
     inkscape:connector-curvature="0"
     id="path832"
     d=""
     style="fill:#000000;stroke:#868686;stroke-width:10;stroke-miterlimit:4;stroke-dasharray:none;stroke-opacity:1" /></svg>